<svg width="42" height="42" viewBox="0 0 42 42" fill="none" xmlns="http://www.w3.org/2000/svg">
<g id="Frame" clip-path="url(#clip0_1_51)">
<g id="Group">
<g id="Group_2">
<path id="Vector" d="M40.6869 25.5938C41.2447 25.5938 41.6712 25.1672 41.6712 24.6094C41.6712 24.0516 41.2447 23.625 40.6869 23.625H37.4056C36.3228 23.625 35.4369 24.5109 35.4369 25.5938V37.4062C35.4369 38.4891 36.3228 39.375 37.4056 39.375H40.6869C41.2447 39.375 41.6712 38.9484 41.6712 38.3906C41.6712 37.8328 41.2447 37.4062 40.6869 37.4062H37.4056V25.5938H40.6869ZM19.0306 20.6719H27.1353C27.8572 20.6719 28.5462 20.8031 29.2025 21.0656L32.779 22.4766C33.2712 22.6734 33.8619 22.4438 34.0587 21.9188C34.2556 21.4266 34.0259 20.8359 33.5009 20.6391L29.9244 19.2281C29.0384 18.8672 28.0869 18.7031 27.1353 18.7031H19.0306C18.0462 18.7031 17.0619 19.1297 16.4056 19.8516C15.7165 20.5734 15.3884 21.5578 15.454 22.5422C15.5525 24.4453 17.1603 25.9219 19.129 25.9219H25.8556C26.7415 25.9219 27.4634 26.6109 27.4962 27.4969C27.529 28.1531 27.1353 28.7766 26.5447 29.0391L20.2119 31.9266L17.6525 29.4984L14.2728 26.2172C13.5837 25.5609 12.6978 25.2 11.779 25.2C10.7947 25.2 9.87592 25.5937 9.18686 26.3156C8.7603 26.7422 8.4978 27.2344 8.33373 27.7594L6.49623 25.9547C5.80717 25.2984 4.92123 24.9375 4.00248 24.9375C3.01811 24.9375 2.09936 25.3313 1.4103 26.0531C-0.0334539 27.4641 -0.000641435 29.7609 1.44311 31.1391L10.0728 39.5063C11.5165 40.9172 13.4525 41.7047 15.454 41.7047C15.8806 41.7047 16.2744 41.6719 16.7009 41.6063L32.4509 39.0797C32.9759 38.9813 33.3369 38.4891 33.2712 37.9641C33.1728 37.4391 32.6806 37.0781 32.1556 37.1437L16.4056 39.6703C16.0775 39.7031 15.7494 39.7031 15.454 39.7031C13.9447 39.7031 12.5009 39.1125 11.4181 38.0625L2.78842 29.7281C2.13217 29.1047 2.13217 28.0547 2.75561 27.3984C3.08373 27.0703 3.47748 26.9062 3.93686 26.9062C4.36342 26.9062 4.75717 27.0703 5.0853 27.3656L9.25248 31.3687L12.5665 34.5844C13.8462 35.7984 15.6837 36.1266 17.2915 35.4047L27.365 30.8109C28.7103 30.1875 29.5306 28.8422 29.465 27.3984C29.3994 25.4625 27.7915 23.9531 25.8556 23.9531H19.129C18.2103 23.9531 17.4556 23.2969 17.39 22.4109C17.3572 21.9516 17.5212 21.525 17.8165 21.1641C18.1447 20.8687 18.5712 20.6719 19.0306 20.6719ZM16.4712 33.6C15.6181 33.9938 14.6009 33.8297 13.9119 33.1734L10.5978 29.9578C9.94155 29.3344 9.94155 28.2844 10.565 27.6281C10.8931 27.3 11.2869 27.1359 11.7462 27.1359C12.1728 27.1359 12.5665 27.3 12.8947 27.5953L16.3072 30.8766L18.3087 32.7797L16.4712 33.6ZM10.1712 0.328125C8.36655 0.328125 6.88998 1.80469 6.88998 3.60938C6.88998 5.41406 8.36655 6.89062 10.1712 6.89062C11.9759 6.89062 13.4525 5.41406 13.4525 3.60938C13.4525 1.80469 11.9759 0.328125 10.1712 0.328125ZM10.1712 4.92188C9.44936 4.92188 8.85873 4.33125 8.85873 3.60938C8.85873 2.8875 9.44936 2.29688 10.1712 2.29688C10.8931 2.29688 11.4837 2.8875 11.4837 3.60938C11.4837 4.33125 10.8931 4.92188 10.1712 4.92188ZM16.7337 12.1406C16.7337 13.9453 18.2103 15.4219 20.015 15.4219C21.8197 15.4219 23.2962 13.9453 23.2962 12.1406C23.2962 10.3359 21.8197 8.85938 20.015 8.85938C18.2103 8.85938 16.7337 10.3359 16.7337 12.1406ZM21.3275 12.1406C21.3275 12.8625 20.7369 13.4531 20.015 13.4531C19.2931 13.4531 18.7025 12.8625 18.7025 12.1406C18.7025 11.4187 19.2931 10.8281 20.015 10.8281C20.7369 10.8281 21.3275 11.4187 21.3275 12.1406ZM20.1134 0.91875L8.62905 13.4859C8.26811 13.8797 8.30092 14.5031 8.69467 14.8641C8.89155 15.0281 9.12123 15.1266 9.35092 15.1266C9.61342 15.1266 9.87592 15.0281 10.0728 14.7984L21.5572 2.23125C21.9181 1.8375 21.8853 1.21406 21.4915 0.853125C21.0978 0.492187 20.4744 0.525 20.1134 0.91875Z" fill="white"/>
</g>
</g>
</g>
<defs>
<clipPath id="clip0_1_51">
<rect width="42" height="42" fill="white"/>
</clipPath>
</defs>
</svg>
