<svg width="42" height="42" viewBox="0 0 42 42" fill="none" xmlns="http://www.w3.org/2000/svg">
<g id="Frame" clip-path="url(#clip0_1_39)">
<g id="Group">
<g id="Group_2">
<path id="Vector" d="M4.59375 0.328125C2.23125 0.328125 0.328125 2.23125 0.328125 4.59375V27.5625C0.328125 29.925 2.23125 31.8281 4.59375 31.8281H11.5497C12.1076 31.8281 12.5341 31.4016 12.5341 30.8438C12.5341 30.2859 12.1076 29.8594 11.5497 29.8594H4.59375C3.31406 29.8594 2.29688 28.8422 2.29688 27.5625V4.59375C2.29688 3.31406 3.31406 2.29688 4.59375 2.29688H37.4062C38.6859 2.29688 39.7031 3.31406 39.7031 4.59375V27.5625C39.7031 28.8422 38.6859 29.8594 37.4062 29.8594H31.5C30.9422 29.8594 30.5156 30.2859 30.5156 30.8438C30.5156 31.4016 30.9422 31.8281 31.5 31.8281H37.4062C39.7687 31.8281 41.6719 29.925 41.6719 27.5625V4.59375C41.6719 2.23125 39.7687 0.328125 37.4062 0.328125H4.59375ZM9.51562 6.89062C8.95781 6.89062 8.53125 7.31719 8.53125 7.875C8.53125 8.43281 8.95781 8.85938 9.51562 8.85938H32.4844C33.0422 8.85938 33.4688 8.43281 33.4688 7.875C33.4688 7.31719 33.0422 6.89062 32.4844 6.89062H9.51562ZM14.4375 11.8125C13.8797 11.8125 13.4531 12.2391 13.4531 12.7969C13.4531 13.3547 13.8797 13.7812 14.4375 13.7812H27.5625C28.1203 13.7812 28.5469 13.3547 28.5469 12.7969C28.5469 12.2391 28.1203 11.8125 27.5625 11.8125H14.4375ZM21 18.0469C17.7516 18.0469 15.0938 20.7047 15.0938 23.9531C15.0938 27.2016 17.7516 29.8594 21 29.8594C22.6734 29.8594 24.1501 29.1703 25.2329 28.0547C25.397 29.0063 25.594 29.9576 25.8565 30.9091C26.1846 32.0576 26.5783 33.1737 27.0376 34.2237L23.3622 33.1733C22.9029 33.0749 22.4107 33.3049 22.2138 33.7315L20.1143 37.9638C19.1956 35.9622 18.4737 33.8624 17.9815 31.6967C17.8503 31.1717 17.3247 30.8439 16.7997 30.9751C16.2747 31.1064 15.9469 31.6313 16.0781 32.1562C16.7016 34.8469 17.6531 37.4389 18.8672 39.8999L19.228 40.6548C19.3921 40.9829 19.7206 41.2124 20.1143 41.2124C20.4753 41.2124 20.8359 40.9829 21 40.6548L23.625 35.3388L28.6122 36.7827C28.9732 36.8811 29.4003 36.7499 29.6299 36.4546C29.8924 36.1592 29.9247 35.7331 29.7607 35.3721L29.3999 34.6172C28.7436 33.2719 28.1858 31.8608 27.7592 30.3842C27.2014 28.4483 26.9392 26.4469 26.8736 24.4453C26.8736 24.2812 26.9062 24.1172 26.9062 23.9531C26.9062 20.7047 24.2484 18.0469 21 18.0469ZM21 20.0483C23.1 20.0483 24.8062 21.6891 24.9375 23.7891C24.9375 23.8547 24.9048 23.9202 24.9048 23.9858V24.4126C24.7079 26.4142 23.0344 27.9233 21 27.9233C18.8344 27.9233 17.0625 26.1514 17.0625 23.9858C17.0625 21.8202 18.8344 20.0483 21 20.0483Z" fill="white"/>
</g>
</g>
</g>
<defs>
<clipPath id="clip0_1_39">
<rect width="42" height="42" fill="white"/>
</clipPath>
</defs>
</svg>
