<svg width="42" height="42" viewBox="0 0 42 42" fill="none" xmlns="http://www.w3.org/2000/svg">
<g id="Frame" clip-path="url(#clip0_1_45)">
<g id="Group">
<g id="Group_2">
<path id="Vector" d="M7.21875 0.328125C4.85625 0.328125 2.95312 2.23125 2.95312 4.59375C2.95312 6.95625 4.85625 8.85938 7.21875 8.85938C9.58125 8.85938 11.4844 6.95625 11.4844 4.59375C11.4844 2.23125 9.58125 0.328125 7.21875 0.328125ZM14.7656 0.328125C14.2078 0.328125 13.7812 0.754687 13.7812 1.3125C13.7812 1.87031 14.2078 2.29688 14.7656 2.29688H35.7656C37.0453 2.29688 38.0625 3.31406 38.0625 4.59375V24.2812C38.0625 24.8391 38.4891 25.2656 39.0469 25.2656C39.6047 25.2656 40.0312 24.8391 40.0312 24.2812V4.59375C40.0312 2.23125 38.1281 0.328125 35.7656 0.328125H14.7656ZM7.21875 2.29688C8.49844 2.29688 9.51562 3.31406 9.51562 4.59375C9.51562 5.87344 8.49844 6.89062 7.21875 6.89062C5.93906 6.89062 4.92188 5.87344 4.92188 4.59375C4.92188 3.31406 5.93906 2.29688 7.21875 2.29688ZM4.59375 10.1719C2.23125 10.1719 0.328125 12.075 0.328125 14.4375V24.2812C0.328125 24.8391 0.754687 25.2656 1.3125 25.2656C1.87031 25.2656 2.29688 24.8391 2.29688 24.2812V14.4375C2.29688 13.1578 3.31406 12.1406 4.59375 12.1406H23.2969C23.8547 12.1406 24.2812 11.7141 24.2812 11.1562C24.2812 10.5984 23.8547 10.1719 23.2969 10.1719H4.59375ZM11.1562 15.0938C10.5984 15.0938 10.1719 15.5203 10.1719 16.0781V39.7031H8.20312V26.9062C8.20312 26.3484 7.77656 25.9219 7.21875 25.9219C6.66094 25.9219 6.23438 26.3484 6.23438 26.9062V39.7031H4.26562V26.0206C4.26562 25.4628 3.83906 25.0362 3.28125 25.0362C2.72344 25.0362 2.29688 25.4628 2.29688 26.0206V39.7031H1.3125C0.754687 39.7031 0.328125 40.1297 0.328125 40.6875C0.328125 41.2453 0.754687 41.6719 1.3125 41.6719H40.6875C41.2453 41.6719 41.6719 41.2453 41.6719 40.6875C41.6719 40.1297 41.2453 39.7031 40.6875 39.7031H12.1406V16.0781C12.1406 15.5203 11.7141 15.0938 11.1562 15.0938ZM29.5639 24.2812C29.0061 24.2812 28.5796 24.7078 28.5796 25.2656C28.5796 25.8234 29.0061 26.25 29.5639 26.25H30.5483H30.6143H30.6797C31.1391 26.25 31.5 26.6109 31.5 27.0703V27.5625C31.5 28.1203 31.9266 28.5469 32.4844 28.5469H40.6875C41.2453 28.5469 41.6719 28.1203 41.6719 27.5625C41.6719 27.0047 41.2453 26.5781 40.6875 26.5781H33.4361C33.2064 25.2656 32.0578 24.2812 30.6797 24.2812H30.6143H30.5483H29.5639ZM16.0781 26.5781C15.5203 26.5781 15.0938 27.0047 15.0938 27.5625C15.0938 28.1203 15.5203 28.5469 16.0781 28.5469H27.5625C28.1203 28.5469 28.5469 28.1203 28.5469 27.5625C28.5469 27.0047 28.1203 26.5781 27.5625 26.5781H16.0781Z" fill="white"/>
</g>
</g>
</g>
<defs>
<clipPath id="clip0_1_45">
<rect width="42" height="42" fill="white"/>
</clipPath>
</defs>
</svg>
