<svg width="57" height="40" viewBox="0 0 57 40" fill="none" xmlns="http://www.w3.org/2000/svg">
<path d="M12.695 0H57L44.305 40H0L12.695 0Z" fill="black"/>
<path d="M27 11.8072C29.6506 11.8072 30.0121 11.8072 31.0964 11.8072C32.0602 11.8072 32.5422 12.0482 32.9036 12.1687C33.3855 12.4096 33.747 12.5301 34.1084 12.8916C34.4699 13.253 34.7108 13.6145 34.8313 14.0964C34.9518 14.4578 35.0723 14.9398 35.1928 15.9036C35.1928 16.988 35.1928 17.2289 35.1928 20C35.1928 22.7711 35.1928 23.0121 35.1928 24.0964C35.1928 25.0602 34.9518 25.5422 34.8313 25.9036C34.5904 26.3855 34.4699 26.747 34.1084 27.1084C33.747 27.4699 33.3855 27.7108 32.9036 27.8313C32.5422 27.9518 32.0602 28.0723 31.0964 28.1928C30.0121 28.1928 29.7711 28.1928 27 28.1928C24.2289 28.1928 23.988 28.1928 22.9036 28.1928C21.9398 28.1928 21.4578 27.9518 21.0964 27.8313C20.6145 27.5904 20.253 27.4699 19.8916 27.1084C19.5301 26.747 19.2892 26.3855 19.1687 25.9036C19.0482 25.5422 18.9277 25.0602 18.8072 24.0964C18.8072 23.0121 18.8072 22.7711 18.8072 20C18.8072 17.2289 18.8072 16.988 18.8072 15.9036C18.8072 14.9398 19.0482 14.4578 19.1687 14.0964C19.4096 13.6145 19.5301 13.253 19.8916 12.8916C20.253 12.5301 20.6145 12.2892 21.0964 12.1687C21.4578 12.0482 21.9398 11.9277 22.9036 11.8072C23.988 11.8072 24.3494 11.8072 27 11.8072ZM27 10C24.2289 10 23.988 10 22.9036 10C21.8193 10 21.0964 10.241 20.494 10.4819C19.8916 10.7229 19.2892 11.0843 18.6867 11.6867C18.0843 12.2892 17.8434 12.7711 17.4819 13.494C17.241 14.0964 17.1205 14.8193 17 15.9036C17 16.988 17 17.3494 17 20C17 22.7711 17 23.0121 17 24.0964C17 25.1807 17.241 25.9036 17.4819 26.506C17.7229 27.1084 18.0843 27.7108 18.6867 28.3133C19.2892 28.9157 19.7711 29.1566 20.494 29.5181C21.0964 29.759 21.8193 29.8795 22.9036 30C23.988 30 24.3494 30 27 30C29.6506 30 30.0121 30 31.0964 30C32.1807 30 32.9036 29.759 33.506 29.5181C34.1084 29.2771 34.7108 28.9157 35.3133 28.3133C35.9157 27.7108 36.1566 27.2289 36.5181 26.506C36.759 25.9036 36.8795 25.1807 37 24.0964C37 23.0121 37 22.6506 37 20C37 17.3494 37 16.988 37 15.9036C37 14.8193 36.759 14.0964 36.5181 13.494C36.2771 12.8916 35.9157 12.2892 35.3133 11.6867C34.7108 11.0843 34.2289 10.8434 33.506 10.4819C32.9036 10.241 32.1807 10.1205 31.0964 10C30.0121 10 29.7711 10 27 10Z" fill="white"/>
<path d="M27 14.8193C24.1084 14.8193 21.8193 17.1084 21.8193 20C21.8193 22.8916 24.1084 25.1807 27 25.1807C29.8916 25.1807 32.1807 22.8916 32.1807 20C32.1807 17.1084 29.8916 14.8193 27 14.8193ZM27 23.3735C25.1928 23.3735 23.6265 21.9277 23.6265 20C23.6265 18.1928 25.0723 16.6265 27 16.6265C28.8072 16.6265 30.3735 18.0723 30.3735 20C30.3735 21.8072 28.8072 23.3735 27 23.3735Z" fill="white"/>
<path d="M32.3012 15.9036C32.9666 15.9036 33.506 15.3642 33.506 14.6988C33.506 14.0334 32.9666 13.494 32.3012 13.494C31.6358 13.494 31.0964 14.0334 31.0964 14.6988C31.0964 15.3642 31.6358 15.9036 32.3012 15.9036Z" fill="white"/>
</svg>
