<svg width="18" height="24" viewBox="0 0 18 24" fill="none" xmlns="http://www.w3.org/2000/svg">
<g id="9165430_scroll_left_icon 1" clip-path="url(#clip0_1_460)">
<g id="Clip path group">
<mask id="mask0_1_460" style="mask-type:luminance" maskUnits="userSpaceOnUse" x="0" y="0" width="18" height="24">
<g id="clip0">
<path id="Vector" d="M17.8206 0.0361328H0.0865479V23.925H17.8206V0.0361328Z" fill="white"/>
</g>
</mask>
<g mask="url(#mask0_1_460)">
<g id="Group">
<path id="Vector_2" d="M5.28359 21.3624C5.50485 21.7432 5.87268 22.0605 6.13015 22.266C6.75572 22.7503 7.45184 23.1359 8.19421 23.4094C8.96055 23.7131 9.7774 23.8691 10.6017 23.8691C11.5428 23.8575 12.4746 23.6807 13.3544 23.3466C13.9784 23.1098 14.5565 22.7662 15.0622 22.3307C16.0142 21.5396 16.6762 20.4577 17.0859 19.0238C17.619 17.1627 17.8474 15.2279 17.7622 13.294C17.7398 12.7872 17.5902 12.2815 17.4456 11.7925L17.4248 11.7214C17.3544 11.4807 17.2299 11.2593 17.061 11.074C16.892 10.8886 16.6828 10.7445 16.4497 10.6524C15.7232 10.344 15.0508 10.4342 14.4506 10.9205C14.0803 10.2216 13.4856 9.75969 12.81 9.64976C12.5244 9.60277 12.2319 9.62375 11.9561 9.71098C11.6802 9.79822 11.4288 9.94926 11.2222 10.1518C10.4683 9.12503 9.8876 9.018 8.71036 9.69419C8.6968 9.49515 8.68437 9.29726 8.67196 9.10009C8.64066 8.60604 8.60887 8.0953 8.55952 7.59686C8.46659 6.66009 8.35085 5.55515 8.19824 4.46375C8.11047 3.88775 7.88039 3.34275 7.52883 2.87812C7.11364 2.31082 6.53783 2.18356 5.90628 2.51967C5.71705 2.61772 5.55024 2.75398 5.41637 2.91984C5.28251 3.08568 5.1845 3.2775 5.12859 3.48317C5.05635 3.72625 5.01091 3.9765 4.993 4.22946C4.98185 4.40172 4.97022 4.57398 4.95805 4.74625C4.91194 5.41765 4.86414 6.11209 4.86508 6.7959C4.86727 8.20097 4.88905 9.57526 4.91211 11.0303C4.92066 11.5711 4.92896 12.115 4.93695 12.662L4.9281 12.6542C4.8678 12.5998 4.81575 12.5527 4.75869 12.5103C3.7083 11.727 2.57663 11.4447 1.39532 11.6703C1.13272 11.7127 0.885615 11.8224 0.677926 11.9886C0.470237 12.1547 0.309056 12.3718 0.210071 12.6187C0.113805 12.8815 0.0861271 13.1645 0.129643 13.441C0.173159 13.7174 0.286409 13.9781 0.458745 14.1987C0.625715 14.4077 0.813862 14.5989 1.02012 14.7694L1.10702 14.8466C1.86929 15.5111 2.5037 16.3094 2.979 17.202C3.65666 18.498 4.41054 19.8591 5.28359 21.3624ZM5.85035 9.953C5.84409 9.68793 5.8315 9.41858 5.81909 9.15809C5.79822 8.70013 5.77576 8.22675 5.78724 7.76274C5.81709 6.55169 5.88762 5.32084 5.95584 4.13057L5.95884 4.07746C5.98075 3.69326 6.07581 3.28381 6.60804 3.14903C6.95125 3.40492 7.15997 3.77827 7.24561 4.28965C7.38686 5.13087 7.47973 5.89188 7.5297 6.61595C7.60272 7.67072 7.65727 8.74468 7.71037 9.78317C7.73645 10.2939 7.76326 10.8046 7.79079 11.3153C7.80363 11.5481 7.86383 11.8638 8.23594 11.9168C8.59865 11.969 8.7375 11.6827 8.83994 11.4743C8.88615 11.3804 8.93047 11.285 8.97553 11.1895C9.0983 10.8987 9.25123 10.6217 9.43182 10.3628C9.58934 10.1549 9.79412 10.0541 9.99223 10.086C10.1955 10.1188 10.362 10.2837 10.4489 10.5384C10.5169 10.7765 10.5534 11.0224 10.5573 11.2699C10.5626 11.355 10.5677 11.4401 10.5754 11.524C10.5786 11.5863 10.5763 11.6487 10.5684 11.7104C10.5505 11.8115 10.556 11.9153 10.5842 12.0139C10.6155 12.0917 10.6638 12.1616 10.7257 12.2183C10.7874 12.275 10.8612 12.3172 10.9414 12.3417C11.0252 12.3433 11.1083 12.3269 11.1852 12.2935C11.262 12.2602 11.3308 12.2107 11.3868 12.1483C11.4444 12.0709 11.4801 11.9793 11.49 11.8832C11.4989 11.8319 11.5119 11.7815 11.5289 11.7323C11.5591 11.6539 11.5885 11.5758 11.618 11.4965C11.7133 11.2268 11.8234 10.9628 11.948 10.7053C12.127 10.3524 12.4772 10.3832 12.6699 10.4329C13.1697 10.5618 13.4695 10.8598 13.561 11.3186C13.6043 11.5721 13.6288 11.8285 13.634 12.0857C13.6368 12.1462 13.6396 12.2067 13.6428 12.267C13.6579 12.5467 13.7189 12.8152 14.0601 12.8852C14.4013 12.9552 14.554 12.6903 14.6555 12.5152L14.7124 12.4161C14.8127 12.2324 14.9245 12.0553 15.0473 11.8858C15.3002 11.552 15.5872 11.3898 15.8566 11.4288C16.1089 11.4652 16.3222 11.6808 16.457 12.036C16.6744 12.5751 16.8035 13.1458 16.8391 13.726C16.8874 15.0551 16.7215 16.4559 16.3011 18.2678C16.1043 19.0973 15.7484 19.8808 15.253 20.5745C14.6806 21.3874 13.8351 21.9564 12.6683 22.3135C10.6334 22.9366 8.72509 22.5951 6.8337 21.2709C6.63124 21.1364 6.45436 20.9668 6.31133 20.7702C5.98714 20.3034 5.68806 19.8196 5.41536 19.3208C5.01415 18.5771 4.61658 17.7915 4.23342 16.9857C3.55473 15.5577 2.71234 14.4676 1.65841 13.6534C1.64624 13.6445 1.63471 13.6347 1.62397 13.6241C1.58954 13.5876 1.55325 13.5517 1.51706 13.5158C1.31666 13.3176 1.12733 13.1298 1.2257 12.8168C1.33305 12.4741 1.64225 12.4185 1.96866 12.4185C1.98286 12.4185 1.99697 12.4185 2.01115 12.4185C3.16815 12.4339 4.02664 12.8688 4.56241 13.7111C4.65495 13.877 4.72291 14.0556 4.76419 14.2411C4.77836 14.2924 4.79246 14.3433 4.80727 14.3935C4.8754 14.6219 4.98796 14.8597 5.30686 14.8928C5.56764 14.9196 5.79715 14.7219 5.88061 14.4008C5.91914 14.2407 5.93583 14.076 5.93017 13.9114C5.90576 12.4759 5.87945 11.1808 5.85035 9.953Z" fill="#D12223"/>
<path id="Vector_3" d="M9.77777 2.70579C9.98905 2.76082 10.2069 2.78644 10.4252 2.78194C11.25 2.77079 12.0885 2.75346 12.8994 2.73668C13.2349 2.72973 13.5705 2.72294 13.906 2.71633C13.9912 2.71466 14.0763 2.71497 14.1805 2.71549H14.2586C14.1647 2.83891 14.0728 2.95772 13.9839 3.07341C13.7447 3.38439 13.5189 3.67846 13.3031 3.97473C13.1492 4.18628 13.0858 4.38022 13.1198 4.53555C13.1299 4.58224 13.1502 4.62618 13.179 4.66429C13.2078 4.7024 13.2446 4.73379 13.2867 4.75628C13.3556 4.79756 13.4338 4.82026 13.514 4.8221C13.7218 4.8221 13.8712 4.64654 13.9882 4.50915C14.5079 3.89867 15.062 3.24115 15.5933 2.56966C15.7891 2.32232 15.8595 2.14852 15.829 1.98861C15.7977 1.82628 15.6611 1.68608 15.3712 1.51823L15.0913 1.35685C14.5156 1.02491 13.9202 0.681703 13.3425 0.33161C12.9865 0.115879 12.7329 0.0312769 12.5689 0.275904C12.4149 0.505405 12.5193 0.748049 12.8787 0.996535C13.158 1.18942 13.4391 1.36926 13.7648 1.57759C13.8751 1.64811 13.9894 1.72133 14.1091 1.79853H14.1045C14.0393 1.805 14.0002 1.80897 13.9605 1.81074C13.6198 1.82576 13.279 1.84054 12.9382 1.85508C12.1511 1.88878 11.3372 1.92371 10.537 1.96294C10.2835 1.96853 10.0314 2.00355 9.78592 2.06725C9.7176 2.0981 9.65758 2.14472 9.6108 2.2033C9.56403 2.26189 9.53181 2.33074 9.51687 2.40421C9.49715 2.51384 9.67022 2.67658 9.77777 2.70579Z" fill="#D12223"/>
</g>
</g>
</g>
</g>
<defs>
<clipPath id="clip0_1_460">
<rect width="17.9603" height="24" fill="white"/>
</clipPath>
</defs>
</svg>
