<svg width="57" height="40" viewBox="0 0 57 40" fill="none" xmlns="http://www.w3.org/2000/svg">
<path d="M12.695 0H57L44.305 40H0L12.695 0Z" fill="black"/>
<path d="M37 11.6022L33.9946 27.2923C33.9946 27.2923 33.5741 28.3801 32.4189 27.8584L25.4846 22.3526L25.4524 22.3364C26.3891 21.4654 33.6524 14.7027 33.9698 14.3961C34.4613 13.9214 34.1562 13.6387 33.5856 13.9974L22.8568 21.053L18.7176 19.6108C18.7176 19.6108 18.0663 19.3708 18.0036 18.8491C17.9401 18.3265 18.7391 18.0439 18.7391 18.0439L35.6131 11.1889C35.6131 11.1889 37 10.5579 37 11.6022Z" fill="white"/>
</svg>
